<svg width="20" height="20" viewBox="0 0 20 20" fill="none" xmlns="http://www.w3.org/2000/svg">
<g id="Icon">
<path id="Vector" d="M18.1712 8.36789H17.5V8.33331H9.99999V11.6666H14.7096C14.0225 13.6071 12.1762 15 9.99999 15C7.23874 15 4.99999 12.7612 4.99999 9.99997C4.99999 7.23872 7.23874 4.99997 9.99999 4.99997C11.2746 4.99997 12.4342 5.48081 13.3171 6.26622L15.6742 3.90914C14.1858 2.52206 12.195 1.66664 9.99999 1.66664C5.39791 1.66664 1.66666 5.39789 1.66666 9.99997C1.66666 14.6021 5.39791 18.3333 9.99999 18.3333C14.6021 18.3333 18.3333 14.6021 18.3333 9.99997C18.3333 9.44122 18.2758 8.89581 18.1712 8.36789Z" fill="#FFC107"/>
<path id="Vector_2" d="M2.6275 6.12122L5.36542 8.12914C6.10625 6.29497 7.90042 4.99997 10 4.99997C11.2746 4.99997 12.4342 5.48081 13.3171 6.26622L15.6742 3.90914C14.1858 2.52206 12.195 1.66664 10 1.66664C6.79917 1.66664 4.02334 3.47372 2.6275 6.12122Z" fill="#FF3D00"/>
<path id="Vector_3" d="M10 18.3333C12.1525 18.3333 14.1084 17.5095 15.5871 16.17L13.0079 13.9875C12.1432 14.6451 11.0865 15.0008 10 15C7.83252 15 5.9921 13.6179 5.29877 11.6891L2.58127 13.7829C3.96043 16.4816 6.76127 18.3333 10 18.3333Z" fill="#4CAF50"/>
<path id="Vector_4" d="M18.1713 8.36794H17.5V8.33336H10V11.6667H14.7096C14.3809 12.5902 13.7889 13.3972 13.0067 13.9879L13.0079 13.9871L15.5871 16.1696C15.4046 16.3354 18.3333 14.1667 18.3333 10C18.3333 9.44128 18.2758 8.89586 18.1713 8.36794Z" fill="#010886"/>
</g>
</svg>
