<svg width="251" height="144" viewBox="0 0 251 144" fill="none" xmlns="http://www.w3.org/2000/svg">
<g clip-path="url(#clip0_203_26440)">
<rect width="251" height="144" rx="10" fill="#03143C"/>
<path d="M191.981 21.568H196.867C196.885 21.6893 196.904 21.82 196.923 21.96C196.941 22.0907 196.951 22.2307 196.951 22.38C196.951 22.9773 196.857 23.57 196.671 24.158C196.484 24.746 196.167 25.2687 195.719 25.726C195.261 26.202 194.725 26.5707 194.109 26.832C193.493 27.0933 192.788 27.224 191.995 27.224C191.276 27.224 190.595 27.0933 189.951 26.832C189.316 26.5707 188.761 26.2067 188.285 25.74C187.809 25.2733 187.431 24.7227 187.151 24.088C186.88 23.444 186.745 22.744 186.745 21.988C186.745 21.232 186.88 20.5367 187.151 19.902C187.431 19.258 187.809 18.7027 188.285 18.236C188.761 17.7693 189.316 17.4053 189.951 17.144C190.595 16.8827 191.276 16.752 191.995 16.752C192.76 16.752 193.465 16.8873 194.109 17.158C194.762 17.4287 195.308 17.8067 195.747 18.292L194.641 19.398C194.314 19.034 193.927 18.754 193.479 18.558C193.04 18.362 192.541 18.264 191.981 18.264C191.505 18.264 191.047 18.3527 190.609 18.53C190.17 18.7073 189.783 18.9593 189.447 19.286C189.111 19.6033 188.845 19.9907 188.649 20.448C188.453 20.9053 188.355 21.4187 188.355 21.988C188.355 22.5573 188.453 23.0707 188.649 23.528C188.845 23.9853 189.111 24.3773 189.447 24.704C189.783 25.0213 190.17 25.2687 190.609 25.446C191.047 25.6233 191.509 25.712 191.995 25.712C192.639 25.712 193.157 25.614 193.549 25.418C193.95 25.222 194.286 24.9933 194.557 24.732C194.753 24.5453 194.925 24.3027 195.075 24.004C195.224 23.696 195.322 23.36 195.369 22.996H191.981V21.568ZM200.286 27V18.488H197.486V16.976H204.668V18.488H201.868V27H200.286ZM206.006 16.976H209.786C210.187 16.976 210.565 17.046 210.92 17.186C211.284 17.3167 211.601 17.5033 211.872 17.746C212.152 17.9793 212.371 18.2593 212.53 18.586C212.689 18.9127 212.768 19.2673 212.768 19.65C212.768 20.1633 212.637 20.602 212.376 20.966C212.124 21.3207 211.802 21.5867 211.41 21.764V21.848C211.914 22.0253 212.32 22.3147 212.628 22.716C212.945 23.1173 213.104 23.6027 213.104 24.172C213.104 24.6013 213.02 24.9887 212.852 25.334C212.684 25.6793 212.455 25.978 212.166 26.23C211.877 26.4727 211.541 26.664 211.158 26.804C210.785 26.9347 210.383 27 209.954 27H206.006V16.976ZM209.73 21.162C209.963 21.162 210.173 21.1247 210.36 21.05C210.547 20.966 210.701 20.8633 210.822 20.742C210.953 20.6113 211.051 20.4667 211.116 20.308C211.181 20.14 211.214 19.972 211.214 19.804C211.214 19.636 211.181 19.4727 211.116 19.314C211.051 19.146 210.957 19.0013 210.836 18.88C210.715 18.7493 210.565 18.6467 210.388 18.572C210.211 18.488 210.01 18.446 209.786 18.446H207.588V21.162H209.73ZM209.954 25.53C210.206 25.53 210.43 25.488 210.626 25.404C210.822 25.32 210.985 25.208 211.116 25.068C211.247 24.928 211.345 24.7693 211.41 24.592C211.485 24.4147 211.522 24.2327 211.522 24.046C211.522 23.8593 211.485 23.682 211.41 23.514C211.345 23.3367 211.242 23.1827 211.102 23.052C210.962 22.912 210.789 22.8 210.584 22.716C210.388 22.632 210.159 22.59 209.898 22.59H207.588V25.53H209.954ZM218.681 26.16H218.597C218.391 26.4307 218.125 26.678 217.799 26.902C217.472 27.1167 217.057 27.224 216.553 27.224C216.189 27.224 215.848 27.1633 215.531 27.042C215.213 26.93 214.938 26.7713 214.705 26.566C214.471 26.3513 214.285 26.104 214.145 25.824C214.014 25.5347 213.949 25.2173 213.949 24.872C213.949 24.508 214.019 24.1813 214.159 23.892C214.308 23.6027 214.509 23.36 214.761 23.164C215.022 22.968 215.33 22.8187 215.685 22.716C216.039 22.604 216.422 22.548 216.833 22.548C217.29 22.548 217.673 22.5947 217.981 22.688C218.289 22.772 218.522 22.8513 218.681 22.926V22.66C218.681 22.4547 218.634 22.2633 218.541 22.086C218.457 21.9087 218.335 21.7593 218.177 21.638C218.027 21.5073 217.855 21.4093 217.659 21.344C217.463 21.2693 217.257 21.232 217.043 21.232C216.697 21.232 216.385 21.302 216.105 21.442C215.834 21.5727 215.591 21.7873 215.377 22.086L214.145 21.274C214.471 20.826 214.877 20.49 215.363 20.266C215.848 20.0327 216.399 19.916 217.015 19.916C218.032 19.916 218.816 20.168 219.367 20.672C219.927 21.176 220.207 21.8947 220.207 22.828V27H218.681V26.16ZM218.681 24.144C218.475 24.0227 218.247 23.9247 217.995 23.85C217.743 23.7753 217.453 23.738 217.127 23.738C216.641 23.738 216.254 23.85 215.965 24.074C215.675 24.298 215.531 24.5687 215.531 24.886C215.531 25.054 215.568 25.2033 215.643 25.334C215.717 25.4553 215.811 25.5627 215.923 25.656C216.044 25.7493 216.179 25.8193 216.329 25.866C216.487 25.9127 216.646 25.936 216.805 25.936C217.057 25.936 217.295 25.8893 217.519 25.796C217.752 25.6933 217.953 25.5627 218.121 25.404C218.289 25.236 218.424 25.0447 218.527 24.83C218.629 24.6153 218.681 24.3867 218.681 24.144ZM223.139 21.064H223.223C223.428 20.7373 223.717 20.4667 224.091 20.252C224.473 20.028 224.903 19.916 225.379 19.916C226.247 19.916 226.895 20.1773 227.325 20.7C227.754 21.2133 227.969 21.8993 227.969 22.758V27H226.415V22.968C226.415 22.3707 226.275 21.9553 225.995 21.722C225.724 21.4793 225.365 21.358 224.917 21.358C224.646 21.358 224.408 21.414 224.203 21.526C223.997 21.638 223.82 21.792 223.671 21.988C223.521 22.1747 223.409 22.394 223.335 22.646C223.26 22.8887 223.223 23.1453 223.223 23.416V27H221.669V20.14H223.139V21.064ZM229.475 16.976H231.029V22.786H231.085L233.717 20.14H235.663V20.224L233.059 22.8L235.831 26.916V27H233.983L231.953 23.878L231.029 24.788V27H229.475V16.976Z" fill="white"/>
<path d="M20.9678 44.87C20.6278 45.27 20.2178 45.5867 19.7378 45.82C19.2578 46.0467 18.7178 46.16 18.1178 46.16C17.5845 46.16 17.0911 46.0667 16.6378 45.88C16.1845 45.6867 15.7878 45.4233 15.4478 45.09C15.1145 44.75 14.8511 44.3533 14.6578 43.9C14.4711 43.4467 14.3778 42.9533 14.3778 42.42C14.3778 41.8933 14.4711 41.4033 14.6578 40.95C14.8511 40.49 15.1145 40.0933 15.4478 39.76C15.7878 39.42 16.1845 39.1567 16.6378 38.97C17.0911 38.7767 17.5845 38.68 18.1178 38.68C18.6711 38.68 19.1678 38.7833 19.6078 38.99C20.0478 39.19 20.4345 39.4767 20.7678 39.85L19.9678 40.63C19.7278 40.3433 19.4578 40.1267 19.1578 39.98C18.8645 39.8333 18.5178 39.76 18.1178 39.76C17.7645 39.76 17.4278 39.8233 17.1078 39.95C16.7945 40.07 16.5211 40.2467 16.2878 40.48C16.0545 40.7067 15.8678 40.9867 15.7278 41.32C15.5945 41.6467 15.5278 42.0133 15.5278 42.42C15.5278 42.8267 15.5945 43.1967 15.7278 43.53C15.8678 43.8567 16.0545 44.1367 16.2878 44.37C16.5211 44.5967 16.7945 44.7733 17.1078 44.9C17.4278 45.02 17.7645 45.08 18.1178 45.08C18.5445 45.08 18.9245 44.9933 19.2578 44.82C19.5911 44.64 19.8878 44.3933 20.1478 44.08L20.9678 44.87ZM24.7967 45.4H24.7367C24.5901 45.5933 24.4001 45.77 24.1667 45.93C23.9334 46.0833 23.6367 46.16 23.2767 46.16C23.0167 46.16 22.7734 46.1167 22.5467 46.03C22.3201 45.95 22.1234 45.8367 21.9567 45.69C21.7901 45.5367 21.6567 45.36 21.5567 45.16C21.4634 44.9533 21.4167 44.7267 21.4167 44.48C21.4167 44.22 21.4667 43.9867 21.5667 43.78C21.6734 43.5733 21.8167 43.4 21.9967 43.26C22.1834 43.12 22.4034 43.0133 22.6567 42.94C22.9101 42.86 23.1834 42.82 23.4767 42.82C23.8034 42.82 24.0767 42.8533 24.2967 42.92C24.5167 42.98 24.6834 43.0367 24.7967 43.09V42.9C24.7967 42.7533 24.7634 42.6167 24.6967 42.49C24.6367 42.3633 24.5501 42.2567 24.4367 42.17C24.3301 42.0767 24.2067 42.0067 24.0667 41.96C23.9267 41.9067 23.7801 41.88 23.6267 41.88C23.3801 41.88 23.1567 41.93 22.9567 42.03C22.7634 42.1233 22.5901 42.2767 22.4367 42.49L21.5567 41.91C21.7901 41.59 22.0801 41.35 22.4267 41.19C22.7734 41.0233 23.1667 40.94 23.6067 40.94C24.3334 40.94 24.8934 41.12 25.2867 41.48C25.6867 41.84 25.8867 42.3533 25.8867 43.02V46H24.7967V45.4ZM24.7967 43.96C24.6501 43.8733 24.4867 43.8033 24.3067 43.75C24.1267 43.6967 23.9201 43.67 23.6867 43.67C23.3401 43.67 23.0634 43.75 22.8567 43.91C22.6501 44.07 22.5467 44.2633 22.5467 44.49C22.5467 44.61 22.5734 44.7167 22.6267 44.81C22.6801 44.8967 22.7467 44.9733 22.8267 45.04C22.9134 45.1067 23.0101 45.1567 23.1167 45.19C23.2301 45.2233 23.3434 45.24 23.4567 45.24C23.6367 45.24 23.8067 45.2067 23.9667 45.14C24.1334 45.0667 24.2767 44.9733 24.3967 44.86C24.5167 44.74 24.6134 44.6033 24.6867 44.45C24.7601 44.2967 24.7967 44.1333 24.7967 43.96ZM26.9311 41.1H27.9811V41.84H28.0411C28.1011 41.7133 28.1811 41.5967 28.2811 41.49C28.3878 41.3767 28.5044 41.2833 28.6311 41.21C28.7644 41.13 28.9011 41.07 29.0411 41.03C29.1878 40.9833 29.3278 40.96 29.4611 40.96C29.6211 40.96 29.7578 40.9733 29.8711 41C29.9844 41.0267 30.0878 41.0633 30.1811 41.11L29.8611 42.14C29.7878 42.1067 29.7044 42.0833 29.6111 42.07C29.5244 42.05 29.4178 42.04 29.2911 42.04C29.1111 42.04 28.9444 42.0767 28.7911 42.15C28.6444 42.2233 28.5144 42.3233 28.4011 42.45C28.2878 42.5767 28.1978 42.7267 28.1311 42.9C28.0711 43.0733 28.0411 43.2567 28.0411 43.45V46H26.9311V41.1ZM34.186 45.37H34.126C33.9927 45.5833 33.7893 45.77 33.516 45.93C33.2427 46.0833 32.916 46.16 32.536 46.16C32.2227 46.16 31.9227 46.0967 31.636 45.97C31.356 45.8367 31.1093 45.6533 30.896 45.42C30.6827 45.1867 30.5127 44.9133 30.386 44.6C30.2593 44.28 30.196 43.93 30.196 43.55C30.196 43.17 30.2593 42.8233 30.386 42.51C30.5127 42.19 30.6827 41.9133 30.896 41.68C31.1093 41.4467 31.356 41.2667 31.636 41.14C31.9227 41.0067 32.2227 40.94 32.536 40.94C32.916 40.94 33.2427 41.02 33.516 41.18C33.7893 41.3333 33.9927 41.5167 34.126 41.73H34.186L34.126 41.05V38.84H35.236V46H34.186V45.37ZM32.746 45.13C32.9327 45.13 33.1127 45.0933 33.286 45.02C33.466 44.9467 33.6193 44.8433 33.746 44.71C33.8793 44.5767 33.986 44.4133 34.066 44.22C34.146 44.02 34.186 43.7967 34.186 43.55C34.186 43.3033 34.146 43.0833 34.066 42.89C33.986 42.69 33.8793 42.5233 33.746 42.39C33.6193 42.2567 33.466 42.1533 33.286 42.08C33.1127 42.0067 32.9327 41.97 32.746 41.97C32.5527 41.97 32.3693 42.0067 32.196 42.08C32.0227 42.1533 31.8693 42.26 31.736 42.4C31.6093 42.5333 31.506 42.6967 31.426 42.89C31.346 43.0833 31.306 43.3033 31.306 43.55C31.306 43.7967 31.346 44.0167 31.426 44.21C31.506 44.4033 31.6093 44.57 31.736 44.71C31.8693 44.8433 32.0227 44.9467 32.196 45.02C32.3693 45.0933 32.5527 45.13 32.746 45.13ZM39.6022 41.76H39.6622C39.8089 41.5267 40.0155 41.3333 40.2822 41.18C40.5555 41.02 40.8622 40.94 41.2022 40.94C41.8222 40.94 42.2855 41.1267 42.5922 41.5C42.8989 41.8667 43.0522 42.3567 43.0522 42.97V46H41.9422V43.12C41.9422 42.6933 41.8422 42.3967 41.6422 42.23C41.4489 42.0567 41.1922 41.97 40.8722 41.97C40.6789 41.97 40.5089 42.01 40.3622 42.09C40.2155 42.17 40.0889 42.28 39.9822 42.42C39.8755 42.5533 39.7955 42.71 39.7422 42.89C39.6889 43.0633 39.6622 43.2467 39.6622 43.44V46H38.5522V41.1H39.6022V41.76ZM47.5384 45.34H47.4784C47.3317 45.5733 47.1217 45.77 46.8484 45.93C46.5817 46.0833 46.2784 46.16 45.9384 46.16C45.3184 46.16 44.855 45.9767 44.5484 45.61C44.2417 45.2367 44.0884 44.7433 44.0884 44.13V41.1H45.1984V43.98C45.1984 44.4067 45.295 44.7067 45.4884 44.88C45.6884 45.0467 45.9484 45.13 46.2684 45.13C46.455 45.13 46.6217 45.09 46.7684 45.01C46.9217 44.93 47.0517 44.8233 47.1584 44.69C47.265 44.55 47.345 44.3933 47.3984 44.22C47.4517 44.04 47.4784 43.8533 47.4784 43.66V41.1H48.5884V46H47.5384V45.34ZM49.7045 41.1H50.7545V41.76H50.8145C50.9679 41.52 51.1812 41.3233 51.4545 41.17C51.7279 41.0167 52.0179 40.94 52.3245 40.94C52.6912 40.94 53.0045 41.0267 53.2645 41.2C53.5312 41.3667 53.7245 41.5867 53.8445 41.86C54.0112 41.6 54.2345 41.3833 54.5145 41.21C54.7945 41.03 55.1312 40.94 55.5245 40.94C55.8245 40.94 56.0845 40.99 56.3045 41.09C56.5245 41.1833 56.7045 41.3167 56.8445 41.49C56.9912 41.6633 57.1012 41.8733 57.1745 42.12C57.2479 42.36 57.2845 42.63 57.2845 42.93V46H56.1745V43.12C56.1745 42.6933 56.0912 42.3967 55.9245 42.23C55.7645 42.0567 55.5279 41.97 55.2145 41.97C55.0345 41.97 54.8712 42.01 54.7245 42.09C54.5845 42.17 54.4645 42.28 54.3645 42.42C54.2645 42.5533 54.1879 42.71 54.1345 42.89C54.0812 43.07 54.0545 43.26 54.0545 43.46V46H52.9445V43.12C52.9445 42.6933 52.8579 42.3967 52.6845 42.23C52.5179 42.0567 52.2745 41.97 51.9545 41.97C51.7812 41.97 51.6245 42.01 51.4845 42.09C51.3445 42.17 51.2245 42.28 51.1245 42.42C51.0245 42.5533 50.9479 42.71 50.8945 42.89C50.8412 43.07 50.8145 43.26 50.8145 43.46V46H49.7045V41.1ZM58.3666 38.84H59.4766V41.05L59.4166 41.73H59.4766C59.61 41.5167 59.8133 41.3333 60.0866 41.18C60.36 41.02 60.6866 40.94 61.0666 40.94C61.38 40.94 61.6766 41.0067 61.9566 41.14C62.2433 41.2667 62.4933 41.4467 62.7066 41.68C62.92 41.9133 63.09 42.19 63.2166 42.51C63.3433 42.8233 63.4066 43.17 63.4066 43.55C63.4066 43.93 63.3433 44.28 63.2166 44.6C63.09 44.9133 62.92 45.1867 62.7066 45.42C62.4933 45.6533 62.2433 45.8367 61.9566 45.97C61.6766 46.0967 61.38 46.16 61.0666 46.16C60.6866 46.16 60.36 46.0833 60.0866 45.93C59.8133 45.77 59.61 45.5833 59.4766 45.37H59.4166V46H58.3666V38.84ZM60.8566 45.13C61.0433 45.13 61.2233 45.0933 61.3966 45.02C61.5766 44.9467 61.73 44.8433 61.8566 44.71C61.99 44.57 62.0966 44.4033 62.1766 44.21C62.2566 44.0167 62.2966 43.7967 62.2966 43.55C62.2966 43.3033 62.2566 43.0833 62.1766 42.89C62.0966 42.6967 61.99 42.5333 61.8566 42.4C61.73 42.26 61.5766 42.1533 61.3966 42.08C61.2233 42.0067 61.0433 41.97 60.8566 41.97C60.6633 41.97 60.48 42.0067 60.3066 42.08C60.1333 42.1533 59.98 42.2567 59.8466 42.39C59.72 42.5233 59.6166 42.69 59.5366 42.89C59.4566 43.0833 59.4166 43.3033 59.4166 43.55C59.4166 43.7967 59.4566 44.02 59.5366 44.22C59.6166 44.4133 59.72 44.5767 59.8466 44.71C59.98 44.8433 60.1333 44.9467 60.3066 45.02C60.48 45.0933 60.6633 45.13 60.8566 45.13ZM68.7855 44.83C68.5789 45.21 68.2855 45.5267 67.9055 45.78C67.5255 46.0333 67.0589 46.16 66.5055 46.16C66.1389 46.16 65.7989 46.0967 65.4855 45.97C65.1789 45.8367 64.9122 45.6533 64.6855 45.42C64.4589 45.1867 64.2822 44.9133 64.1555 44.6C64.0289 44.28 63.9655 43.93 63.9655 43.55C63.9655 43.1967 64.0255 42.8633 64.1455 42.55C64.2655 42.23 64.4322 41.9533 64.6455 41.72C64.8655 41.48 65.1289 41.29 65.4355 41.15C65.7422 41.01 66.0822 40.94 66.4555 40.94C66.8355 40.94 67.1722 41.0033 67.4655 41.13C67.7655 41.2567 68.0189 41.4333 68.2255 41.66C68.4322 41.8867 68.5889 42.16 68.6955 42.48C68.8089 42.8 68.8655 43.15 68.8655 43.53C68.8655 43.5633 68.8655 43.5933 68.8655 43.62C68.8589 43.6533 68.8555 43.6833 68.8555 43.71C68.8489 43.7367 68.8455 43.7633 68.8455 43.79H65.0755C65.0955 44.0233 65.1522 44.2267 65.2455 44.4C65.3389 44.5733 65.4522 44.7167 65.5855 44.83C65.7255 44.9433 65.8789 45.0267 66.0455 45.08C66.2122 45.1333 66.3755 45.16 66.5355 45.16C66.8555 45.16 67.1189 45.0833 67.3255 44.93C67.5322 44.7767 67.7022 44.5867 67.8355 44.36L68.7855 44.83ZM67.7555 42.94C67.7422 42.84 67.7089 42.73 67.6555 42.61C67.6089 42.4833 67.5322 42.37 67.4255 42.27C67.3255 42.1633 67.1922 42.0733 67.0255 42C66.8655 41.9267 66.6689 41.89 66.4355 41.89C66.1155 41.89 65.8389 41.9867 65.6055 42.18C65.3789 42.3667 65.2255 42.62 65.1455 42.94H67.7555ZM69.7045 41.1H70.7545V41.84H70.8145C70.8745 41.7133 70.9545 41.5967 71.0545 41.49C71.1612 41.3767 71.2779 41.2833 71.4045 41.21C71.5379 41.13 71.6745 41.07 71.8145 41.03C71.9612 40.9833 72.1012 40.96 72.2345 40.96C72.3945 40.96 72.5312 40.9733 72.6445 41C72.7579 41.0267 72.8612 41.0633 72.9545 41.11L72.6345 42.14C72.5612 42.1067 72.4779 42.0833 72.3845 42.07C72.2979 42.05 72.1912 42.04 72.0645 42.04C71.8845 42.04 71.7179 42.0767 71.5645 42.15C71.4179 42.2233 71.2879 42.3233 71.1745 42.45C71.0612 42.5767 70.9712 42.7267 70.9045 42.9C70.8445 43.0733 70.8145 43.2567 70.8145 43.45V46H69.7045V41.1Z" fill="white"/>
<path d="M15.5027 58.824L17.2307 59.448L17.3267 59.4V57.544H18.7027V59.4L18.7987 59.448L20.5267 58.824L20.9747 60.136L19.2307 60.728L19.1827 60.856L20.3667 62.472L19.2627 63.288L18.0787 61.64H17.9507L16.7667 63.288L15.6627 62.472L16.8467 60.856L16.7987 60.728L15.0547 60.136L15.5027 58.824ZM23.6658 58.824L25.3938 59.448L25.4898 59.4V57.544H26.8658V59.4L26.9618 59.448L28.6898 58.824L29.1378 60.136L27.3938 60.728L27.3458 60.856L28.5298 62.472L27.4258 63.288L26.2418 61.64H26.1138L24.9298 63.288L23.8258 62.472L25.0098 60.856L24.9618 60.728L23.2178 60.136L23.6658 58.824ZM31.8289 58.824L33.5569 59.448L33.6529 59.4V57.544H35.0289V59.4L35.1249 59.448L36.8529 58.824L37.3009 60.136L35.5569 60.728L35.5089 60.856L36.6929 62.472L35.5889 63.288L34.4049 61.64H34.2769L33.0929 63.288L31.9889 62.472L33.1729 60.856L33.1249 60.728L31.3809 60.136L31.8289 58.824ZM39.9921 58.824L41.7201 59.448L41.8161 59.4V57.544H43.1921V59.4L43.2881 59.448L45.0161 58.824L45.4641 60.136L43.7201 60.728L43.6721 60.856L44.8561 62.472L43.7521 63.288L42.5681 61.64H42.4401L41.2561 63.288L40.1521 62.472L41.3361 60.856L41.2881 60.728L39.5441 60.136L39.9921 58.824ZM52.6308 58.824L54.3588 59.448L54.4548 59.4V57.544H55.8308V59.4L55.9268 59.448L57.6548 58.824L58.1028 60.136L56.3588 60.728L56.3108 60.856L57.4948 62.472L56.3908 63.288L55.2068 61.64H55.0788L53.8948 63.288L52.7908 62.472L53.9748 60.856L53.9268 60.728L52.1828 60.136L52.6308 58.824ZM60.7939 58.824L62.5219 59.448L62.6179 59.4V57.544H63.9939V59.4L64.0899 59.448L65.8179 58.824L66.2659 60.136L64.5219 60.728L64.4739 60.856L65.6579 62.472L64.5539 63.288L63.3699 61.64H63.2419L62.0579 63.288L60.9539 62.472L62.1379 60.856L62.0899 60.728L60.3459 60.136L60.7939 58.824ZM68.9571 58.824L70.6851 59.448L70.7811 59.4V57.544H72.1571V59.4L72.2531 59.448L73.9811 58.824L74.4291 60.136L72.6851 60.728L72.6371 60.856L73.8211 62.472L72.7171 63.288L71.5331 61.64H71.4051L70.2211 63.288L69.1171 62.472L70.3011 60.856L70.2531 60.728L68.5091 60.136L68.9571 58.824ZM77.1202 58.824L78.8482 59.448L78.9442 59.4V57.544H80.3202V59.4L80.4162 59.448L82.1442 58.824L82.5922 60.136L80.8482 60.728L80.8002 60.856L81.9842 62.472L80.8802 63.288L79.6962 61.64H79.5682L78.3842 63.288L77.2802 62.472L78.4642 60.856L78.4162 60.728L76.6722 60.136L77.1202 58.824ZM89.7589 58.824L91.4869 59.448L91.5829 59.4V57.544H92.9589V59.4L93.0549 59.448L94.7829 58.824L95.2309 60.136L93.4869 60.728L93.4389 60.856L94.6229 62.472L93.5189 63.288L92.3349 61.64H92.2069L91.0229 63.288L89.9189 62.472L91.1029 60.856L91.0549 60.728L89.3109 60.136L89.7589 58.824ZM97.9221 58.824L99.6501 59.448L99.7461 59.4V57.544H101.122V59.4L101.218 59.448L102.946 58.824L103.394 60.136L101.65 60.728L101.602 60.856L102.786 62.472L101.682 63.288L100.498 61.64H100.37L99.1861 63.288L98.0821 62.472L99.2661 60.856L99.2181 60.728L97.4741 60.136L97.9221 58.824ZM106.085 58.824L107.813 59.448L107.909 59.4V57.544H109.285V59.4L109.381 59.448L111.109 58.824L111.557 60.136L109.813 60.728L109.765 60.856L110.949 62.472L109.845 63.288L108.661 61.64H108.533L107.349 63.288L106.245 62.472L107.429 60.856L107.381 60.728L105.637 60.136L106.085 58.824ZM114.248 58.824L115.976 59.448L116.072 59.4V57.544H117.448V59.4L117.544 59.448L119.272 58.824L119.72 60.136L117.976 60.728L117.928 60.856L119.112 62.472L118.008 63.288L116.824 61.64H116.696L115.512 63.288L114.408 62.472L115.592 60.856L115.544 60.728L113.8 60.136L114.248 58.824ZM126.487 69V67.32C127.106 66.712 127.676 66.1413 128.199 65.608C128.423 65.384 128.647 65.1547 128.871 64.92C129.106 64.6853 129.324 64.4667 129.527 64.264C129.73 64.0507 129.916 63.8587 130.087 63.688C130.258 63.5067 130.391 63.3627 130.487 63.256C130.69 63.0213 130.866 62.8133 131.015 62.632C131.164 62.4507 131.287 62.2747 131.383 62.104C131.479 61.9333 131.548 61.7627 131.591 61.592C131.644 61.4213 131.671 61.2293 131.671 61.016C131.671 60.824 131.628 60.6373 131.543 60.456C131.468 60.2747 131.356 60.1147 131.207 59.976C131.058 59.8267 130.871 59.7093 130.647 59.624C130.434 59.528 130.183 59.48 129.895 59.48C129.618 59.48 129.372 59.528 129.159 59.624C128.956 59.7093 128.78 59.8267 128.631 59.976C128.482 60.1147 128.359 60.2693 128.263 60.44C128.167 60.6 128.098 60.76 128.055 60.92L126.439 60.264C126.514 60.008 126.642 59.736 126.823 59.448C127.004 59.16 127.239 58.8933 127.527 58.648C127.815 58.4027 128.156 58.2 128.551 58.04C128.956 57.88 129.415 57.8 129.927 57.8C130.471 57.8 130.962 57.8853 131.399 58.056C131.836 58.2267 132.21 58.456 132.519 58.744C132.828 59.032 133.063 59.368 133.223 59.752C133.394 60.136 133.479 60.5467 133.479 60.984C133.479 61.3253 133.426 61.656 133.319 61.976C133.223 62.296 133.09 62.6053 132.919 62.904C132.759 63.192 132.572 63.464 132.359 63.72C132.156 63.976 131.948 64.2107 131.735 64.424C131.682 64.4773 131.602 64.5573 131.495 64.664C131.388 64.7707 131.26 64.8987 131.111 65.048C130.972 65.1867 130.818 65.336 130.647 65.496C130.476 65.6667 130.306 65.8373 130.135 66.008L128.839 67.304L128.855 67.368H133.607V69H126.487ZM139.595 69.256C139.211 69.256 138.827 69.2027 138.443 69.096C138.059 68.9893 137.696 68.824 137.355 68.6C137.024 68.3653 136.725 68.072 136.459 67.72C136.192 67.368 135.989 66.9467 135.851 66.456L137.515 65.768C137.664 66.344 137.92 66.7867 138.283 67.096C138.645 67.4053 139.083 67.56 139.595 67.56C139.851 67.56 140.096 67.5173 140.331 67.432C140.576 67.3467 140.789 67.2293 140.971 67.08C141.152 66.92 141.296 66.7387 141.403 66.536C141.509 66.3227 141.563 66.088 141.563 65.832C141.563 65.576 141.504 65.3413 141.387 65.128C141.28 64.9147 141.131 64.7333 140.939 64.584C140.747 64.4347 140.517 64.3173 140.251 64.232C139.995 64.1467 139.717 64.104 139.419 64.104H138.475V62.456H139.323C139.579 62.456 139.813 62.424 140.027 62.36C140.251 62.2853 140.448 62.184 140.619 62.056C140.789 61.928 140.923 61.768 141.019 61.576C141.115 61.3733 141.163 61.144 141.163 60.888C141.163 60.4507 141.003 60.1093 140.683 59.864C140.373 59.608 139.979 59.48 139.499 59.48C139.232 59.48 138.997 59.5173 138.795 59.592C138.603 59.6667 138.437 59.768 138.299 59.896C138.16 60.024 138.043 60.168 137.947 60.328C137.861 60.4773 137.792 60.632 137.739 60.792L136.107 60.104C136.192 59.848 136.325 59.5867 136.507 59.32C136.688 59.0427 136.917 58.792 137.195 58.568C137.472 58.344 137.797 58.1627 138.171 58.024C138.555 57.8747 138.997 57.8 139.499 57.8C140.011 57.8 140.48 57.8747 140.907 58.024C141.333 58.1733 141.701 58.3813 142.011 58.648C142.32 58.9147 142.56 59.2293 142.731 59.592C142.901 59.9547 142.987 60.3493 142.987 60.776C142.987 61.0853 142.944 61.368 142.859 61.624C142.784 61.88 142.677 62.1093 142.539 62.312C142.4 62.504 142.245 62.6693 142.075 62.808C141.904 62.9467 141.728 63.064 141.547 63.16V63.256C141.792 63.3627 142.027 63.5013 142.251 63.672C142.475 63.832 142.667 64.024 142.827 64.248C142.997 64.472 143.131 64.728 143.227 65.016C143.323 65.2933 143.371 65.5973 143.371 65.928C143.371 66.408 143.275 66.856 143.083 67.272C142.891 67.6773 142.624 68.0293 142.283 68.328C141.952 68.616 141.557 68.84 141.099 69C140.64 69.1707 140.139 69.256 139.595 69.256ZM150.729 69V66.84H145.609V65.432L150.585 58.056H152.521V65.176H153.897V66.84H152.521V69H150.729ZM150.729 60.696H150.633L147.609 65.176H150.729V60.696ZM159.986 69.256C159.602 69.256 159.213 69.1973 158.818 69.08C158.423 68.9627 158.05 68.7867 157.698 68.552C157.357 68.3067 157.053 67.9973 156.786 67.624C156.519 67.2507 156.322 66.808 156.194 66.296L157.794 65.656C157.933 66.2213 158.183 66.6853 158.546 67.048C158.919 67.4 159.394 67.576 159.97 67.576C160.258 67.576 160.53 67.528 160.786 67.432C161.042 67.3253 161.261 67.1867 161.442 67.016C161.623 66.8347 161.767 66.6213 161.874 66.376C161.981 66.1307 162.034 65.8587 162.034 65.56C162.034 65.2613 161.981 64.9893 161.874 64.744C161.778 64.488 161.639 64.2693 161.458 64.088C161.277 63.9067 161.058 63.768 160.802 63.672C160.546 63.5653 160.269 63.512 159.97 63.512C159.618 63.512 159.298 63.592 159.01 63.752C158.722 63.9013 158.482 64.0987 158.29 64.344L156.53 63.56L157.186 58.056H163.154V59.672H158.674L158.274 62.52L158.37 62.552C158.605 62.3707 158.877 62.216 159.186 62.088C159.495 61.96 159.874 61.896 160.322 61.896C160.781 61.896 161.218 61.9867 161.634 62.168C162.061 62.3387 162.434 62.584 162.754 62.904C163.074 63.224 163.33 63.608 163.522 64.056C163.714 64.504 163.81 65 163.81 65.544C163.81 66.0773 163.714 66.5733 163.522 67.032C163.33 67.48 163.063 67.8693 162.722 68.2C162.381 68.5307 161.975 68.792 161.506 68.984C161.047 69.1653 160.541 69.256 159.986 69.256Z" fill="white"/>
<path d="M14.096 85.272H15.088L16.36 89.032L16.568 89.688H16.616L16.824 89.032L18.16 85.272H19.152L17.064 91H16.12L14.096 85.272ZM20.9355 85.272H21.9755L24.1275 91H23.1275L22.6075 89.528H20.3035L19.7835 91H18.7835L20.9355 85.272ZM22.3035 88.704L21.7035 87.016L21.4795 86.344H21.4315L21.2075 87.016L20.6075 88.704H22.3035ZM24.8026 85.272H25.7066V90.136H28.1626V91H24.8026V85.272ZM28.9276 85.272H29.8316V91H28.9276V85.272ZM30.9823 85.272H32.8223C33.2756 85.272 33.6809 85.344 34.0383 85.488C34.4009 85.6267 34.7076 85.8213 34.9583 86.072C35.2143 86.3227 35.4089 86.624 35.5423 86.976C35.6809 87.328 35.7503 87.7147 35.7503 88.136C35.7503 88.5573 35.6809 88.944 35.5423 89.296C35.4089 89.648 35.2143 89.9493 34.9583 90.2C34.7076 90.4507 34.4009 90.648 34.0383 90.792C33.6809 90.9307 33.2756 91 32.8223 91H30.9823V85.272ZM32.8063 90.136C33.4516 90.136 33.9503 89.96 34.3023 89.608C34.6543 89.256 34.8303 88.7653 34.8303 88.136C34.8303 87.512 34.6543 87.024 34.3023 86.672C33.9503 86.3147 33.4516 86.136 32.8063 86.136H31.8863V90.136H32.8063ZM15.792 101V96.136H14.192V95.272H18.296V96.136H16.696V101H15.792ZM19.0604 95.272H19.9644V97.648H22.6124V95.272H23.5164V101H22.6124V98.496H19.9644V101H19.0604V95.272ZM24.6698 95.272H26.6938C26.9551 95.272 27.1978 95.3147 27.4218 95.4C27.6511 95.4853 27.8484 95.608 28.0138 95.768C28.1791 95.9227 28.3071 96.1067 28.3978 96.32C28.4938 96.5333 28.5418 96.768 28.5418 97.024C28.5418 97.2213 28.5071 97.408 28.4378 97.584C28.3738 97.76 28.2831 97.92 28.1658 98.064C28.0484 98.2027 27.9098 98.3227 27.7498 98.424C27.5951 98.5253 27.4271 98.6 27.2458 98.648L27.2378 98.688L28.8058 100.952V101H27.7498L26.2378 98.768H25.5738V101H24.6698V95.272ZM26.6698 97.92C26.8031 97.92 26.9258 97.8987 27.0378 97.856C27.1551 97.808 27.2564 97.744 27.3418 97.664C27.4271 97.584 27.4938 97.4907 27.5418 97.384C27.5951 97.272 27.6218 97.1493 27.6218 97.016C27.6218 96.9093 27.6004 96.8027 27.5578 96.696C27.5204 96.5893 27.4618 96.4933 27.3818 96.408C27.3071 96.3227 27.2111 96.2533 27.0938 96.2C26.9818 96.1467 26.8511 96.12 26.7018 96.12H25.5738V97.92H26.6698ZM31.5068 101.128C31.1815 101.128 30.8855 101.075 30.6188 100.968C30.3521 100.856 30.1228 100.699 29.9308 100.496C29.7388 100.293 29.5895 100.048 29.4828 99.76C29.3815 99.472 29.3308 99.152 29.3308 98.8V95.272H30.2348V98.848C30.2348 99.0507 30.2615 99.24 30.3148 99.416C30.3681 99.5867 30.4481 99.736 30.5548 99.864C30.6615 99.9867 30.7921 100.085 30.9468 100.16C31.1068 100.229 31.2935 100.264 31.5068 100.264C31.7148 100.264 31.8988 100.229 32.0588 100.16C32.2188 100.085 32.3495 99.9867 32.4508 99.864C32.5575 99.736 32.6375 99.5867 32.6908 99.416C32.7441 99.24 32.7708 99.0507 32.7708 98.848V95.272H33.6748V98.8C33.6748 99.1467 33.6241 99.464 33.5228 99.752C33.4268 100.035 33.2828 100.277 33.0908 100.48C32.9041 100.683 32.6775 100.843 32.4108 100.96C32.1441 101.072 31.8428 101.128 31.5068 101.128Z" fill="white"/>
<path d="M51.508 97V90.4L49.984 91.06L49.48 89.92L51.892 88.792H52.84V97H51.508ZM54.4848 97V95.74C54.9488 95.284 55.3768 94.856 55.7688 94.456C55.9368 94.288 56.1048 94.116 56.2728 93.94C56.4488 93.764 56.6128 93.6 56.7648 93.448C56.9168 93.288 57.0568 93.144 57.1848 93.016C57.3128 92.88 57.4128 92.772 57.4848 92.692C57.6368 92.516 57.7688 92.36 57.8808 92.224C57.9928 92.088 58.0848 91.956 58.1568 91.828C58.2288 91.7 58.2808 91.572 58.3128 91.444C58.3528 91.316 58.3728 91.172 58.3728 91.012C58.3728 90.868 58.3408 90.728 58.2768 90.592C58.2208 90.456 58.1368 90.336 58.0248 90.232C57.9128 90.12 57.7728 90.032 57.6048 89.968C57.4448 89.896 57.2568 89.86 57.0408 89.86C56.8328 89.86 56.6488 89.896 56.4888 89.968C56.3368 90.032 56.2048 90.12 56.0928 90.232C55.9808 90.336 55.8888 90.452 55.8168 90.58C55.7448 90.7 55.6928 90.82 55.6608 90.94L54.4488 90.448C54.5048 90.256 54.6008 90.052 54.7368 89.836C54.8728 89.62 55.0488 89.42 55.2648 89.236C55.4808 89.052 55.7368 88.9 56.0328 88.78C56.3368 88.66 56.6808 88.6 57.0648 88.6C57.4728 88.6 57.8408 88.664 58.1688 88.792C58.4968 88.92 58.7768 89.092 59.0088 89.308C59.2408 89.524 59.4168 89.776 59.5368 90.064C59.6648 90.352 59.7288 90.66 59.7288 90.988C59.7288 91.244 59.6888 91.492 59.6088 91.732C59.5368 91.972 59.4368 92.204 59.3088 92.428C59.1888 92.644 59.0488 92.848 58.8888 93.04C58.7368 93.232 58.5808 93.408 58.4208 93.568C58.3808 93.608 58.3208 93.668 58.2408 93.748C58.1608 93.828 58.0648 93.924 57.9528 94.036C57.8488 94.14 57.7328 94.252 57.6048 94.372C57.4768 94.5 57.3488 94.628 57.2208 94.756L56.2488 95.728L56.2608 95.776H59.8248V97H54.4848ZM60.6795 97L64.2435 88.408H65.5275L61.9635 97H60.6795ZM68.8516 94.036C68.5396 94.036 68.2316 93.972 67.9276 93.844C67.6316 93.708 67.3636 93.524 67.1236 93.292C66.8916 93.052 66.6996 92.772 66.5476 92.452C66.4036 92.124 66.3316 91.764 66.3316 91.372C66.3316 90.988 66.4076 90.628 66.5596 90.292C66.7196 89.948 66.9276 89.652 67.1836 89.404C67.4476 89.156 67.7516 88.96 68.0956 88.816C68.4396 88.672 68.8036 88.6 69.1876 88.6C69.6196 88.6 70.0116 88.68 70.3636 88.84C70.7236 88.992 71.0276 89.2 71.2756 89.464C71.5316 89.72 71.7276 90.02 71.8636 90.364C71.9996 90.7 72.0676 91.048 72.0676 91.408C72.0676 91.928 71.9596 92.408 71.7436 92.848C71.5356 93.28 71.2756 93.724 70.9636 94.18L68.8996 97.216L67.8436 96.484L69.7036 93.892L69.6556 93.844C69.4396 93.972 69.1716 94.036 68.8516 94.036ZM69.1996 89.848C68.9916 89.848 68.7956 89.888 68.6116 89.968C68.4276 90.04 68.2636 90.144 68.1196 90.28C67.9836 90.408 67.8716 90.568 67.7836 90.76C67.7036 90.944 67.6636 91.144 67.6636 91.36C67.6636 91.576 67.7036 91.78 67.7836 91.972C67.8716 92.156 67.9836 92.316 68.1196 92.452C68.2636 92.588 68.4276 92.696 68.6116 92.776C68.7956 92.848 68.9916 92.884 69.1996 92.884C69.3996 92.884 69.5916 92.848 69.7756 92.776C69.9676 92.696 70.1356 92.588 70.2796 92.452C70.4236 92.316 70.5356 92.156 70.6156 91.972C70.7036 91.78 70.7476 91.576 70.7476 91.36C70.7476 91.144 70.7036 90.944 70.6156 90.76C70.5356 90.568 70.4236 90.408 70.2796 90.28C70.1436 90.144 69.9796 90.04 69.7876 89.968C69.6036 89.888 69.4076 89.848 69.1996 89.848ZM75.543 94.036C75.231 94.036 74.923 93.972 74.619 93.844C74.323 93.708 74.055 93.524 73.815 93.292C73.583 93.052 73.391 92.772 73.239 92.452C73.095 92.124 73.023 91.764 73.023 91.372C73.023 90.988 73.099 90.628 73.251 90.292C73.411 89.948 73.619 89.652 73.875 89.404C74.139 89.156 74.443 88.96 74.787 88.816C75.131 88.672 75.495 88.6 75.879 88.6C76.311 88.6 76.703 88.68 77.055 88.84C77.415 88.992 77.719 89.2 77.967 89.464C78.223 89.72 78.419 90.02 78.555 90.364C78.691 90.7 78.759 91.048 78.759 91.408C78.759 91.928 78.651 92.408 78.435 92.848C78.227 93.28 77.967 93.724 77.655 94.18L75.591 97.216L74.535 96.484L76.395 93.892L76.347 93.844C76.131 93.972 75.863 94.036 75.543 94.036ZM75.891 89.848C75.683 89.848 75.487 89.888 75.303 89.968C75.119 90.04 74.955 90.144 74.811 90.28C74.675 90.408 74.563 90.568 74.475 90.76C74.395 90.944 74.355 91.144 74.355 91.36C74.355 91.576 74.395 91.78 74.475 91.972C74.563 92.156 74.675 92.316 74.811 92.452C74.955 92.588 75.119 92.696 75.303 92.776C75.487 92.848 75.683 92.884 75.891 92.884C76.091 92.884 76.283 92.848 76.467 92.776C76.659 92.696 76.827 92.588 76.971 92.452C77.115 92.316 77.227 92.156 77.307 91.972C77.395 91.78 77.439 91.576 77.439 91.36C77.439 91.144 77.395 90.944 77.307 90.76C77.227 90.568 77.115 90.408 76.971 90.28C76.835 90.144 76.671 90.04 76.479 89.968C76.295 89.888 76.099 89.848 75.891 89.848Z" fill="white"/>
<path d="M17.8578 120.224C17.0924 120.224 16.4204 120.019 15.8418 119.608C15.2724 119.188 14.8711 118.6 14.6378 117.844L16.1078 117.242C16.2664 117.765 16.4951 118.143 16.7938 118.376C17.0924 118.6 17.4471 118.712 17.8578 118.712C18.3431 118.712 18.7258 118.549 19.0058 118.222C19.2951 117.895 19.4398 117.461 19.4398 116.92V109.976H21.0218V116.85C21.0218 117.401 20.9378 117.886 20.7698 118.306C20.6111 118.726 20.3918 119.081 20.1118 119.37C19.8318 119.65 19.4958 119.86 19.1038 120C18.7211 120.149 18.3058 120.224 17.8578 120.224ZM25.7016 112.916C26.2243 112.916 26.7049 113.009 27.1436 113.196C27.5823 113.373 27.9603 113.625 28.2776 113.952C28.5949 114.279 28.8423 114.666 29.0196 115.114C29.1969 115.562 29.2856 116.047 29.2856 116.57C29.2856 117.093 29.1969 117.578 29.0196 118.026C28.8423 118.474 28.5949 118.861 28.2776 119.188C27.9603 119.515 27.5823 119.771 27.1436 119.958C26.7049 120.135 26.2243 120.224 25.7016 120.224C25.1789 120.224 24.6983 120.135 24.2596 119.958C23.8209 119.771 23.4429 119.515 23.1256 119.188C22.8083 118.861 22.5609 118.474 22.3836 118.026C22.2063 117.578 22.1176 117.093 22.1176 116.57C22.1176 116.047 22.2063 115.562 22.3836 115.114C22.5609 114.666 22.8083 114.279 23.1256 113.952C23.4429 113.625 23.8209 113.373 24.2596 113.196C24.6983 113.009 25.1789 112.916 25.7016 112.916ZM25.7016 118.782C25.9629 118.782 26.2149 118.731 26.4576 118.628C26.7003 118.525 26.9149 118.381 27.1016 118.194C27.2976 118.007 27.4516 117.779 27.5636 117.508C27.6756 117.228 27.7316 116.915 27.7316 116.57C27.7316 116.225 27.6756 115.917 27.5636 115.646C27.4516 115.366 27.2976 115.133 27.1016 114.946C26.9149 114.759 26.7003 114.615 26.4576 114.512C26.2149 114.409 25.9629 114.358 25.7016 114.358C25.4403 114.358 25.1883 114.409 24.9456 114.512C24.7029 114.615 24.4836 114.759 24.2876 114.946C24.1009 115.133 23.9516 115.366 23.8396 115.646C23.7276 115.917 23.6716 116.225 23.6716 116.57C23.6716 116.915 23.7276 117.228 23.8396 117.508C23.9516 117.779 24.1009 118.007 24.2876 118.194C24.4836 118.381 24.7029 118.525 24.9456 118.628C25.1883 118.731 25.4403 118.782 25.7016 118.782ZM30.3983 109.976H31.9523V112.958L31.8683 114.064H31.9523C32.1483 113.737 32.4376 113.467 32.8203 113.252C33.2029 113.028 33.6276 112.916 34.0943 112.916C34.5423 112.916 34.9296 112.986 35.2563 113.126C35.5829 113.257 35.8536 113.448 36.0683 113.7C36.2829 113.952 36.4416 114.255 36.5443 114.61C36.6469 114.955 36.6983 115.338 36.6983 115.758V120H35.1443V115.968C35.1443 115.399 35.0043 114.988 34.7243 114.736C34.4536 114.484 34.1083 114.358 33.6883 114.358C33.4176 114.358 33.1749 114.419 32.9603 114.54C32.7549 114.652 32.5729 114.806 32.4143 115.002C32.2649 115.198 32.1483 115.422 32.0643 115.674C31.9896 115.926 31.9523 116.187 31.9523 116.458V120H30.3983V109.976ZM39.6749 114.064H39.7589C39.9642 113.737 40.2536 113.467 40.6269 113.252C41.0096 113.028 41.4389 112.916 41.9149 112.916C42.7829 112.916 43.4316 113.177 43.8609 113.7C44.2902 114.213 44.5049 114.899 44.5049 115.758V120H42.9509V115.968C42.9509 115.371 42.8109 114.955 42.5309 114.722C42.2602 114.479 41.9009 114.358 41.4529 114.358C41.1822 114.358 40.9442 114.414 40.7389 114.526C40.5336 114.638 40.3562 114.792 40.2069 114.988C40.0576 115.175 39.9456 115.394 39.8709 115.646C39.7962 115.889 39.7589 116.145 39.7589 116.416V120H38.2049V113.14H39.6749V114.064ZM49.3117 109.976H52.5317C53.325 109.976 54.0344 110.102 54.6597 110.354C55.2944 110.597 55.831 110.937 56.2697 111.376C56.7177 111.815 57.0584 112.342 57.2917 112.958C57.5344 113.574 57.6557 114.251 57.6557 114.988C57.6557 115.725 57.5344 116.402 57.2917 117.018C57.0584 117.634 56.7177 118.161 56.2697 118.6C55.831 119.039 55.2944 119.384 54.6597 119.636C54.0344 119.879 53.325 120 52.5317 120H49.3117V109.976ZM52.5037 118.488C53.633 118.488 54.5057 118.18 55.1217 117.564C55.7377 116.948 56.0457 116.089 56.0457 114.988C56.0457 113.896 55.7377 113.042 55.1217 112.426C54.5057 111.801 53.633 111.488 52.5037 111.488H50.8937V118.488H52.5037ZM61.9457 112.916C62.4684 112.916 62.9491 113.009 63.3877 113.196C63.8264 113.373 64.2044 113.625 64.5217 113.952C64.8391 114.279 65.0864 114.666 65.2637 115.114C65.4411 115.562 65.5297 116.047 65.5297 116.57C65.5297 117.093 65.4411 117.578 65.2637 118.026C65.0864 118.474 64.8391 118.861 64.5217 119.188C64.2044 119.515 63.8264 119.771 63.3877 119.958C62.9491 120.135 62.4684 120.224 61.9457 120.224C61.4231 120.224 60.9424 120.135 60.5037 119.958C60.0651 119.771 59.6871 119.515 59.3697 119.188C59.0524 118.861 58.8051 118.474 58.6277 118.026C58.4504 117.578 58.3617 117.093 58.3617 116.57C58.3617 116.047 58.4504 115.562 58.6277 115.114C58.8051 114.666 59.0524 114.279 59.3697 113.952C59.6871 113.625 60.0651 113.373 60.5037 113.196C60.9424 113.009 61.4231 112.916 61.9457 112.916ZM61.9457 118.782C62.2071 118.782 62.4591 118.731 62.7017 118.628C62.9444 118.525 63.1591 118.381 63.3457 118.194C63.5417 118.007 63.6957 117.779 63.8077 117.508C63.9197 117.228 63.9757 116.915 63.9757 116.57C63.9757 116.225 63.9197 115.917 63.8077 115.646C63.6957 115.366 63.5417 115.133 63.3457 114.946C63.1591 114.759 62.9444 114.615 62.7017 114.512C62.4591 114.409 62.2071 114.358 61.9457 114.358C61.6844 114.358 61.4324 114.409 61.1897 114.512C60.9471 114.615 60.7277 114.759 60.5317 114.946C60.3451 115.133 60.1957 115.366 60.0837 115.646C59.9717 115.917 59.9157 116.225 59.9157 116.57C59.9157 116.915 59.9717 117.228 60.0837 117.508C60.1957 117.779 60.3451 118.007 60.5317 118.194C60.7277 118.381 60.9471 118.525 61.1897 118.628C61.4324 118.731 61.6844 118.782 61.9457 118.782ZM73.0668 118.362C72.7774 118.894 72.3668 119.337 71.8348 119.692C71.3028 120.047 70.6494 120.224 69.8748 120.224C69.3614 120.224 68.8854 120.135 68.4468 119.958C68.0174 119.771 67.6441 119.515 67.3268 119.188C67.0094 118.861 66.7621 118.479 66.5848 118.04C66.4074 117.592 66.3188 117.102 66.3188 116.57C66.3188 116.075 66.4028 115.609 66.5708 115.17C66.7388 114.722 66.9721 114.335 67.2708 114.008C67.5788 113.672 67.9474 113.406 68.3768 113.21C68.8061 113.014 69.2821 112.916 69.8048 112.916C70.3368 112.916 70.8081 113.005 71.2188 113.182C71.6388 113.359 71.9934 113.607 72.2828 113.924C72.5721 114.241 72.7914 114.624 72.9408 115.072C73.0994 115.52 73.1788 116.01 73.1788 116.542C73.1788 116.589 73.1788 116.631 73.1788 116.668C73.1694 116.715 73.1648 116.757 73.1648 116.794C73.1554 116.831 73.1508 116.869 73.1508 116.906H67.8728C67.9008 117.233 67.9801 117.517 68.1108 117.76C68.2414 118.003 68.4001 118.203 68.5868 118.362C68.7828 118.521 68.9974 118.637 69.2308 118.712C69.4641 118.787 69.6928 118.824 69.9168 118.824C70.3648 118.824 70.7334 118.717 71.0228 118.502C71.3121 118.287 71.5501 118.021 71.7368 117.704L73.0668 118.362ZM71.6248 115.716C71.6061 115.576 71.5594 115.422 71.4848 115.254C71.4194 115.077 71.3121 114.918 71.1628 114.778C71.0228 114.629 70.8361 114.503 70.6028 114.4C70.3788 114.297 70.1034 114.246 69.7768 114.246C69.3288 114.246 68.9414 114.381 68.6148 114.652C68.2974 114.913 68.0828 115.268 67.9708 115.716H71.6248ZM80.1837 120.224C79.7823 120.224 79.3903 120.163 79.0077 120.042C78.6343 119.93 78.2843 119.757 77.9577 119.524C77.6403 119.291 77.3603 119.001 77.1177 118.656C76.875 118.311 76.6883 117.909 76.5577 117.452L78.0697 116.836C78.135 117.097 78.2283 117.345 78.3497 117.578C78.4803 117.802 78.6343 117.998 78.8117 118.166C78.9983 118.334 79.2037 118.469 79.4277 118.572C79.661 118.665 79.9177 118.712 80.1977 118.712C80.431 118.712 80.655 118.684 80.8697 118.628C81.0843 118.563 81.271 118.469 81.4297 118.348C81.5883 118.227 81.7143 118.077 81.8077 117.9C81.9103 117.723 81.9617 117.517 81.9617 117.284C81.9617 117.079 81.9243 116.892 81.8497 116.724C81.775 116.556 81.6583 116.402 81.4997 116.262C81.341 116.122 81.131 115.991 80.8697 115.87C80.6083 115.739 80.2957 115.609 79.9317 115.478L79.3017 115.254C79.031 115.161 78.751 115.039 78.4617 114.89C78.1817 114.731 77.925 114.545 77.6917 114.33C77.4677 114.106 77.281 113.845 77.1317 113.546C76.9917 113.247 76.9217 112.897 76.9217 112.496C76.9217 112.123 76.9963 111.773 77.1457 111.446C77.3043 111.11 77.5237 110.816 77.8037 110.564C78.0837 110.312 78.415 110.116 78.7977 109.976C79.1897 109.827 79.619 109.752 80.0857 109.752C80.571 109.752 80.9957 109.822 81.3597 109.962C81.733 110.093 82.0457 110.261 82.2977 110.466C82.5497 110.671 82.7503 110.9 82.8997 111.152C83.0583 111.395 83.175 111.623 83.2497 111.838L81.8217 112.44C81.775 112.3 81.705 112.16 81.6117 112.02C81.5277 111.871 81.4157 111.74 81.2757 111.628C81.1357 111.516 80.9677 111.423 80.7717 111.348C80.585 111.273 80.3657 111.236 80.1137 111.236C79.8897 111.236 79.6797 111.269 79.4837 111.334C79.2877 111.39 79.115 111.474 78.9657 111.586C78.8257 111.698 78.7137 111.829 78.6297 111.978C78.5457 112.127 78.5037 112.291 78.5037 112.468C78.5037 112.823 78.6483 113.112 78.9377 113.336C79.2363 113.551 79.6703 113.756 80.2397 113.952L80.8697 114.176C81.2617 114.307 81.621 114.461 81.9477 114.638C82.2743 114.815 82.559 115.03 82.8017 115.282C83.0443 115.525 83.231 115.809 83.3617 116.136C83.5017 116.463 83.5717 116.841 83.5717 117.27C83.5717 117.793 83.4643 118.241 83.2497 118.614C83.0443 118.978 82.7783 119.281 82.4517 119.524C82.125 119.767 81.761 119.944 81.3597 120.056C80.9583 120.168 80.5663 120.224 80.1837 120.224ZM84.908 113.14H86.378V114.064H86.462C86.6767 113.728 86.9754 113.453 87.358 113.238C87.7407 113.023 88.1467 112.916 88.576 112.916C89.0894 112.916 89.528 113.037 89.892 113.28C90.2654 113.513 90.536 113.821 90.704 114.204C90.9374 113.84 91.25 113.537 91.642 113.294C92.034 113.042 92.5054 112.916 93.056 112.916C93.476 112.916 93.84 112.986 94.148 113.126C94.456 113.257 94.708 113.443 94.904 113.686C95.1094 113.929 95.2634 114.223 95.366 114.568C95.4687 114.904 95.52 115.282 95.52 115.702V120H93.966V115.968C93.966 115.371 93.8494 114.955 93.616 114.722C93.392 114.479 93.0607 114.358 92.622 114.358C92.37 114.358 92.1414 114.414 91.936 114.526C91.74 114.638 91.572 114.792 91.432 114.988C91.292 115.175 91.1847 115.394 91.11 115.646C91.0354 115.898 90.998 116.164 90.998 116.444V120H89.444V115.968C89.444 115.371 89.3227 114.955 89.08 114.722C88.8467 114.479 88.506 114.358 88.058 114.358C87.8154 114.358 87.596 114.414 87.4 114.526C87.204 114.638 87.036 114.792 86.896 114.988C86.756 115.175 86.6487 115.394 86.574 115.646C86.4994 115.898 86.462 116.164 86.462 116.444V120H84.908V113.14ZM97.931 111.922C97.6323 111.922 97.3803 111.819 97.175 111.614C96.979 111.409 96.881 111.161 96.881 110.872C96.881 110.583 96.979 110.335 97.175 110.13C97.3803 109.925 97.6323 109.822 97.931 109.822C98.2203 109.822 98.463 109.925 98.659 110.13C98.8643 110.335 98.967 110.583 98.967 110.872C98.967 111.161 98.8643 111.409 98.659 111.614C98.463 111.819 98.2203 111.922 97.931 111.922ZM97.147 120V113.14H98.701V120H97.147ZM101.072 114.512H99.8682V113.14H101.072V111.04H102.626V113.14H104.32V114.512H102.626V117.564C102.626 117.732 102.645 117.886 102.682 118.026C102.72 118.166 102.776 118.283 102.85 118.376C103.009 118.553 103.21 118.642 103.452 118.642C103.602 118.642 103.718 118.633 103.802 118.614C103.886 118.586 103.975 118.549 104.068 118.502L104.544 119.874C104.348 119.949 104.143 120.005 103.928 120.042C103.714 120.089 103.471 120.112 103.2 120.112C102.874 120.112 102.584 120.061 102.332 119.958C102.08 119.855 101.861 119.715 101.674 119.538C101.273 119.137 101.072 118.591 101.072 117.9V114.512ZM105.676 109.976H107.23V112.958L107.146 114.064H107.23C107.426 113.737 107.715 113.467 108.098 113.252C108.48 113.028 108.905 112.916 109.372 112.916C109.82 112.916 110.207 112.986 110.534 113.126C110.86 113.257 111.131 113.448 111.346 113.7C111.56 113.952 111.719 114.255 111.822 114.61C111.924 114.955 111.976 115.338 111.976 115.758V120H110.422V115.968C110.422 115.399 110.282 114.988 110.002 114.736C109.731 114.484 109.386 114.358 108.966 114.358C108.695 114.358 108.452 114.419 108.238 114.54C108.032 114.652 107.85 114.806 107.692 115.002C107.542 115.198 107.426 115.422 107.342 115.674C107.267 115.926 107.23 116.187 107.23 116.458V120H105.676V109.976Z" fill="white"/>
<path d="M207.183 115.157L206.233 110.561C206.166 110.293 206.003 110.059 205.775 109.904C205.546 109.748 205.269 109.682 204.995 109.718H200.596L200.562 109.937C203.983 110.758 206.244 112.75 207.183 115.157ZM210.378 109.819L207.599 116.912L207.312 115.843C206.407 114.082 205.048 112.595 203.375 111.535L205.912 120.203H208.91L213.376 109.819H210.378ZM214.529 109.819L212.757 120.225H215.57L217.347 109.819H214.529ZM233.142 109.819H230.938C230.629 109.779 230.316 109.842 230.047 109.999C229.778 110.156 229.569 110.397 229.452 110.685L225.262 120.214H228.238C228.238 120.214 228.721 118.931 228.834 118.65H232.462C232.546 119.01 232.805 120.203 232.805 120.203H235.438L233.142 109.819ZM229.649 116.524C229.886 115.928 230.774 113.616 230.774 113.616C230.774 113.616 231.011 113.02 231.151 112.626L231.348 113.52L232.001 116.524H229.649ZM223.062 113.987C222.078 113.509 221.471 113.183 221.476 112.699C221.482 112.215 221.988 111.805 223.096 111.805C223.824 111.785 224.547 111.921 225.217 112.204L225.476 112.322L225.858 110.072C225.045 109.778 224.186 109.631 223.321 109.639C220.509 109.639 218.546 111.045 218.529 113.07C218.529 114.561 219.935 115.399 221.009 115.883C222.084 116.366 222.5 116.721 222.5 117.176C222.5 117.874 221.617 118.195 220.812 118.195C219.892 118.216 218.98 118.023 218.146 117.632L217.781 117.463L217.381 119.792C218.392 120.169 219.463 120.36 220.542 120.355C223.518 120.355 225.453 118.96 225.476 116.8C225.47 115.63 224.716 114.73 223.062 113.987Z" fill="#00A2CE"/>
<path d="M206.233 110.561C206.166 110.293 206.003 110.059 205.775 109.904C205.546 109.748 205.269 109.682 204.995 109.718H200.596L200.562 109.937C203.983 110.764 206.244 112.749 207.183 115.163L206.233 110.561Z" fill="#F99F1B"/>
<path d="M-129.69 202.812C-68.8994 173.425 -3.33846 131.527 113.472 85.2631C230.283 38.9989 281.533 34.6321 337.553 17.7551" stroke="url(#paint0_linear_203_26440)" stroke-opacity="0.1" stroke-width="2" stroke-linecap="round"/>
<path d="M-115.402 210.37C-58.5311 179.513 1.96644 137.523 112.08 86.9417C222.194 36.3608 271.811 27.7705 325.054 8.0467" stroke="url(#paint1_linear_203_26440)" stroke-opacity="0.1" stroke-width="2" stroke-linecap="round"/>
<path d="M-99.1276 214.515C-46.6374 183.037 8.45612 141.791 110.833 88.6034C213.21 35.4156 260.494 23.4737 310.381 1.76382" stroke="url(#paint2_linear_203_26440)" stroke-opacity="0.1" stroke-width="2" stroke-linecap="round"/>
<path d="M-81.1446 215.337C-33.4228 184.061 16.0059 144.355 109.743 90.2351C203.479 36.1148 247.787 21.7003 293.802 -1.14467" stroke="url(#paint3_linear_203_26440)" stroke-opacity="0.1" stroke-width="2" stroke-linecap="round"/>
<path d="M-61.747 212.939C-19.107 182.657 24.4774 145.237 108.813 91.8079C193.148 38.3785 233.899 22.3686 275.595 -0.777852" stroke="url(#paint4_linear_203_26440)" stroke-opacity="0.1" stroke-width="2" stroke-linecap="round"/>
<path d="M-41.2305 207.475C-3.90935 178.935 33.7331 144.493 108.054 93.3125C182.375 42.1325 219.054 25.3947 256.054 2.75541" stroke="url(#paint5_linear_203_26440)" stroke-opacity="0.1" stroke-width="2" stroke-linecap="round"/>
<path d="M-19.9041 199.11C11.9393 173.015 43.6236 142.179 107.469 94.7281C171.315 47.2767 203.476 30.6606 235.479 9.30478" stroke="url(#paint6_linear_203_26440)" stroke-opacity="0.1" stroke-width="2" stroke-linecap="round"/>
<path d="M1.9219 188.04C28.2069 165.039 53.998 138.374 107.062 96.0377C160.126 53.7018 187.398 38.0314 214.177 18.696" stroke="url(#paint7_linear_203_26440)" stroke-opacity="0.1" stroke-width="2" stroke-linecap="round"/>
<path d="M23.9341 174.482C44.6587 155.168 64.7011 133.164 106.833 97.2259C148.964 61.2878 171.053 47.3536 192.46 30.7295" stroke="url(#paint8_linear_203_26440)" stroke-opacity="0.1" stroke-width="2" stroke-linecap="round"/>
<path d="M45.8203 158.679C61.0606 143.578 75.5763 126.652 106.781 98.2778C137.986 69.9034 154.675 58.4553 170.64 45.1811" stroke="url(#paint9_linear_203_26440)" stroke-opacity="0.1" stroke-width="2" stroke-linecap="round"/>
<path d="M67.2707 140.891C77.1792 130.463 86.4651 118.952 106.905 99.1805C127.344 79.4092 138.498 71.1493 149.029 61.8056" stroke="url(#paint10_linear_203_26440)" stroke-opacity="0.1" stroke-width="2" stroke-linecap="round"/>
<path d="M87.9838 121.401C92.7881 116.032 97.2128 110.191 107.201 99.9262C117.189 89.6613 122.752 85.2375 127.936 80.3413" stroke="url(#paint11_linear_203_26440)" stroke-opacity="0.1" stroke-width="2" stroke-linecap="round"/>
</g>
<defs>
<linearGradient id="paint0_linear_203_26440" x1="113.595" y1="84.9407" x2="122.889" y2="107.237" gradientUnits="userSpaceOnUse">
<stop offset="0.45" stop-color="white"/>
<stop offset="1" stop-color="#0B1836"/>
</linearGradient>
<linearGradient id="paint1_linear_203_26440" x1="112.174" y1="86.6548" x2="121.28" y2="105.663" gradientUnits="userSpaceOnUse">
<stop offset="0.45" stop-color="white"/>
<stop offset="1" stop-color="#0B1836"/>
</linearGradient>
<linearGradient id="paint2_linear_203_26440" x1="110.9" y1="88.3516" x2="119.586" y2="104.485" gradientUnits="userSpaceOnUse">
<stop offset="0.45" stop-color="white"/>
<stop offset="1" stop-color="#0B1836"/>
</linearGradient>
<linearGradient id="paint3_linear_203_26440" x1="109.787" y1="90.0179" x2="117.894" y2="103.629" gradientUnits="userSpaceOnUse">
<stop offset="0.45" stop-color="white"/>
<stop offset="1" stop-color="#0B1836"/>
</linearGradient>
<linearGradient id="paint4_linear_203_26440" x1="108.837" y1="91.6239" x2="116.255" y2="103.012" gradientUnits="userSpaceOnUse">
<stop offset="0.45" stop-color="white"/>
<stop offset="1" stop-color="#0B1836"/>
</linearGradient>
<linearGradient id="paint5_linear_203_26440" x1="108.062" y1="93.1604" x2="114.713" y2="102.578" gradientUnits="userSpaceOnUse">
<stop offset="0.45" stop-color="white"/>
<stop offset="1" stop-color="#0B1836"/>
</linearGradient>
<linearGradient id="paint6_linear_203_26440" x1="107.465" y1="94.6059" x2="113.291" y2="102.264" gradientUnits="userSpaceOnUse">
<stop offset="0.45" stop-color="white"/>
<stop offset="1" stop-color="#0B1836"/>
</linearGradient>
<linearGradient id="paint7_linear_203_26440" x1="107.049" y1="95.9433" x2="112.005" y2="102.02" gradientUnits="userSpaceOnUse">
<stop offset="0.45" stop-color="white"/>
<stop offset="1" stop-color="#0B1836"/>
</linearGradient>
<linearGradient id="paint8_linear_203_26440" x1="106.815" y1="97.1566" x2="110.861" y2="101.802" gradientUnits="userSpaceOnUse">
<stop offset="0.45" stop-color="white"/>
<stop offset="1" stop-color="#0B1836"/>
</linearGradient>
<linearGradient id="paint9_linear_203_26440" x1="106.763" y1="98.2307" x2="109.861" y2="101.57" gradientUnits="userSpaceOnUse">
<stop offset="0.45" stop-color="white"/>
<stop offset="1" stop-color="#0B1836"/>
</linearGradient>
<linearGradient id="paint10_linear_203_26440" x1="106.889" y1="99.1525" x2="109" y2="101.293" gradientUnits="userSpaceOnUse">
<stop offset="0.45" stop-color="white"/>
<stop offset="1" stop-color="#0B1836"/>
</linearGradient>
<linearGradient id="paint11_linear_203_26440" x1="107.191" y1="99.9141" x2="108.272" y2="100.946" gradientUnits="userSpaceOnUse">
<stop offset="0.45" stop-color="white"/>
<stop offset="1" stop-color="#0B1836"/>
</linearGradient>
<clipPath id="clip0_203_26440">
<rect width="251" height="144" fill="white"/>
</clipPath>
</defs>
</svg>