<svg width="25" height="25" viewBox="0 0 25 25" fill="none" xmlns="http://www.w3.org/2000/svg">
<path d="M9.98657 5.0163L7.98657 5.01498C7.45614 5.01464 6.94729 5.22502 6.57197 5.59984C6.19666 5.97467 5.98561 6.48324 5.98526 7.01367L5.97738 19.0137C5.97704 19.5441 6.18742 20.0529 6.56224 20.4283C6.93707 20.8036 7.44564 21.0146 7.97607 21.015L17.9761 21.0215C18.5065 21.0219 19.0153 20.8115 19.3907 20.4367C19.766 20.0619 19.977 19.5533 19.9774 19.0229L19.9853 7.02286C19.9856 6.49243 19.7752 5.98358 19.4004 5.60826C19.0256 5.23294 18.517 5.0219 17.9866 5.02155L15.9866 5.02023" stroke="#7C8493" stroke-width="2" stroke-linecap="round" stroke-linejoin="round"/>
<path d="M13.9878 3.01898L11.9878 3.01767C10.8832 3.01695 9.98721 3.91179 9.98648 5.01636C9.98576 6.12093 10.8806 7.01694 11.9852 7.01767L13.9852 7.01898C15.0897 7.01971 15.9858 6.12486 15.9865 5.02029C15.9872 3.91573 15.0924 3.01971 13.9878 3.01898Z" stroke="#7C8493" stroke-width="2" stroke-linecap="round" stroke-linejoin="round"/>
<path d="M9.98193 12.0164L9.99193 12.0164" stroke="#7C8493" stroke-width="2" stroke-linecap="round" stroke-linejoin="round"/>
<path d="M13.9819 12.019L15.9819 12.0204" stroke="#7C8493" stroke-width="2" stroke-linecap="round" stroke-linejoin="round"/>
<path d="M9.97925 16.0164L9.98925 16.0164" stroke="#7C8493" stroke-width="2" stroke-linecap="round" stroke-linejoin="round"/>
<path d="M13.9792 16.019L15.9792 16.0204" stroke="#7C8493" stroke-width="2" stroke-linecap="round" stroke-linejoin="round"/>
</svg>